<?xml version="1.0" encoding="UTF-8" standalone="no"?>
<svg width="48px" height="48px" viewBox="0 0 48 48" version="1.1" xmlns="http://www.w3.org/2000/svg" xmlns:xlink="http://www.w3.org/1999/xlink" xmlns:sketch="http://www.bohemiancoding.com/sketch/ns">
    <!-- Generator: Sketch 3.4.4 (17249) - http://www.bohemiancoding.com/sketch -->
    <title>48</title>
    <desc>Created with Sketch.</desc>
    <defs></defs>
    <g id="Page-1" stroke="none" stroke-width="1" fill="none" fill-rule="evenodd" sketch:type="MSPage">
        <g id="noun_15266" sketch:type="MSLayerGroup" transform="translate(7.000000, 7.000000)">
            <g id="Group" sketch:type="MSShapeGroup">
                <path d="M19.975,10.2 C18.6070667,10.2 17.3808,10.8052 16.5398667,11.7583333 L23.4101333,11.7583333 C22.5686333,10.8052 21.3423667,10.2 19.975,10.2 L19.975,10.2 Z" id="Shape"></path>
                <path d="M27.3932333,14.7854667 C27.3932333,18.8762333 24.0657667,22.2037 19.975,22.2037 C15.8842333,22.2037 12.5562,18.8762333 12.5562,14.7854667 C12.5562,13.7071 12.7930667,12.6842667 13.2084333,11.7583333 L9.35,11.7583333 L9.35,25.5 L30.6,25.5 L30.6,11.7583333 L26.7404333,11.7583333 C27.1563667,12.6842667 27.3932333,13.7065333 27.3932333,14.7854667 L27.3932333,14.7854667 Z" id="Shape"></path>
                <path d="M15.3895333,15.3521333 C15.3895333,17.8800333 17.4465333,19.9370333 19.975,19.9370333 C22.5029,19.9370333 24.5599,17.8800333 24.5599,15.3521333 C24.5599,14.1916 24.123,13.1336333 23.4101333,12.325 L16.5398667,12.325 C15.8264333,13.1336333 15.3895333,14.1916 15.3895333,15.3521333 L15.3895333,15.3521333 Z" id="Shape"></path>
                <path d="M31.9877667,0 L2.29556667,0 C1.18433333,0 0.283333333,0.901 0.283333333,2.01223333 L0.283333333,31.7044333 C0.283333333,32.8156667 1.18433333,33.7166667 2.29556667,33.7166667 L31.9877667,33.7166667 C33.099,33.7166667 34,32.8156667 34,31.7044333 L34,2.01223333 C34,0.901 33.099,0 31.9877667,0 L31.9877667,0 Z M12.8384,12.954 C13.8918333,11.7606 15.4280667,11.0024 17.1416667,11.0024 C18.8541333,11.0024 20.3903667,11.7606 21.4443667,12.954 C22.338,13.9672 22.8848333,15.2920667 22.8848333,16.7455667 C22.8848333,19.9121 20.3082,22.4887333 17.1416667,22.4887333 C13.9745667,22.4887333 11.3979333,19.9121 11.3979333,16.7455667 C11.3979333,15.2926333 11.9447667,13.9672 12.8384,12.954 L12.8384,12.954 Z M30.4509667,30.1676333 L3.83236667,30.1676333 L3.83236667,12.954 L8.66603333,12.954 C8.14583333,14.1139667 7.8489,15.3946333 7.8489,16.7455667 C7.8489,21.8699333 12.0178667,26.0377667 17.1416667,26.0377667 C22.2654667,26.0377667 26.4338667,21.8699333 26.4338667,16.7455667 C26.4338667,15.3946333 26.1369333,14.1134 25.6167333,12.954 L30.4509667,12.954 L30.4509667,30.1676333 L30.4509667,30.1676333 Z M30.4509667,7.2862 C30.4509667,8.1804 29.7256333,8.90516667 28.8308667,8.90516667 L26.7149333,8.90516667 C25.8201667,8.90516667 25.0948333,8.1804 25.0948333,7.2862 L25.0948333,5.16856667 C25.0948333,4.27436667 25.8201667,3.5496 26.7149333,3.5496 L28.8308667,3.5496 C29.7256333,3.5496 30.4509667,4.27436667 30.4509667,5.16856667 L30.4509667,7.2862 L30.4509667,7.2862 Z" id="Shape" fill="#000000"></path>
            </g>
        </g>
        <g id="48" sketch:type="MSArtboardGroup"></g>
    </g>
</svg>