<?xml version="1.0" encoding="UTF-8" standalone="no"?>
<svg width="48px" height="48px" viewBox="0 0 48 48" version="1.1" xmlns="http://www.w3.org/2000/svg" xmlns:xlink="http://www.w3.org/1999/xlink" xmlns:sketch="http://www.bohemiancoding.com/sketch/ns">
    <!-- Generator: Sketch 3.4.4 (17249) - http://www.bohemiancoding.com/sketch -->
    <title>48</title>
    <desc>Created with Sketch.</desc>
    <defs></defs>
    <g id="Page-1" stroke="none" stroke-width="1" fill="none" fill-rule="evenodd" sketch:type="MSPage">
        <g id="48" sketch:type="MSArtboardGroup" fill="#000000">
            <g id="noun_26635_cc" sketch:type="MSLayerGroup" transform="translate(5.000000, 8.000000)">
                <path d="M38.7894,4.08339394 C38.61975,3.86909091 38.3501625,3.76145455 38.0791125,3.80024242 C37.9182375,3.8230303 37.71495,3.86278788 37.4517,3.92 C37.206975,3.97284848 36.9081375,4.04315152 36.5746875,4.12557576 C36.7024125,3.83466667 36.81015,3.53212121 36.9061875,3.21648485 C37.062675,2.69769697 37.1928375,2.14593939 37.327875,1.56072727 C37.396125,1.26739394 37.284975,0.961939394 37.043175,0.779636364 C36.8008875,0.597818182 36.4752375,0.575030303 36.2090625,0.720484848 C35.0137125,1.37648485 34.120125,1.79248485 33.3474375,2.06448485 C32.69565,2.29333333 32.1247875,2.42375758 31.4964,2.51248485 C30.7593,1.82157576 29.9325,1.29018182 29.0457375,0.926545455 C28.0449,0.513939394 26.9724,0.312727273 25.8769875,0.312727273 C24.5665875,0.313212121 23.2230375,0.599272727 21.9102,1.14957576 L21.9102,1.14957576 C21.2720625,1.41721212 20.678775,1.81430303 20.1420375,2.29915152 C19.3376625,3.02787879 18.65955,3.95636364 18.1744875,4.99151515 C17.689425,6.02666667 17.396925,7.16945455 17.3964375,8.32775758 C17.3964375,8.44945455 17.400825,8.57163636 17.406675,8.69284848 C17.3862,8.68751515 17.3671875,8.68266667 17.3472,8.67733333 C15.9534375,8.30981818 13.806975,7.58254545 11.6766,6.63757576 C10.803,6.25163636 9.594975,5.48072727 8.4166875,4.48775758 C7.2349875,3.49624242 6.0723,2.27878788 5.23185,1.01284848 C5.1051,0.821333333 4.8988875,0.69769697 4.6697625,0.674424242 C4.4406375,0.651151515 4.212975,0.731636364 4.05015,0.893575758 C3.684525,1.25527273 3.37545,1.59078788 3.11025,1.92484848 C2.713425,2.42521212 2.418975,2.93139394 2.220075,3.48266667 C2.0202,4.03393939 1.915875,4.61575758 1.8525,5.28193939 C1.8091125,5.73139394 1.78035,6.21478788 1.78035,6.71369697 C1.7823,7.81478788 1.9183125,8.99539394 2.3931375,10.0659394 C2.0314125,10.1090909 1.7437875,10.4004848 1.7184375,10.768 C1.69845,11.0555152 1.6887,11.3367273 1.6887,11.6126061 C1.6872375,14.0964848 2.4838125,16.118303 3.7337625,17.5219394 C3.8556375,17.6596364 3.982875,17.7881212 4.1130375,17.9141818 C4.11255,17.92 4.111575,17.9248485 4.111575,17.9316364 C4.1101125,17.9815758 4.109625,18.0305455 4.109625,18.08 C4.1091375,19.0278788 4.3558125,19.9175758 4.7736,20.7044848 C5.400525,21.8870303 6.3964875,22.8455758 7.54455,23.545697 C7.9681875,23.8031515 8.413275,24.0252121 8.871525,24.2113939 C6.9405375,24.8242424 5.3483625,24.9648485 4.0365,24.966303 C3.4539375,24.966303 2.9254875,24.9372121 2.442375,24.9090909 C1.9592625,24.8795152 1.521975,24.848 1.1110125,24.848 C1.013025,24.848 0.9169875,24.8504242 0.821925,24.854303 C0.5913375,24.8649697 0.38025,24.976 0.242775,25.1592727 C0.1048125,25.3430303 0.0570375,25.5752727 0.11115,25.798303 C0.338325,26.7180606 0.8877375,27.5544242 1.6462875,28.2933333 C2.7889875,29.4007273 4.4182125,30.3132121 6.375525,30.9658182 C8.33235,31.6155152 10.6197,32 13.0752375,32 C16.65495,32 20.5959,31.1810909 24.3540375,29.1481212 C27.7879875,27.286303 30.6447375,24.2375758 32.3626875,20.8387879 C32.9554875,19.6635152 33.603375,18.1449697 34.1089125,16.5309091 C34.613475,14.9163636 34.980075,13.2130909 34.98105,11.6397576 C34.98105,11.1059394 34.9366875,10.5866667 34.837725,10.089697 C35.272575,9.77890909 35.660625,9.47636364 36.011625,9.16993939 C36.7072875,8.56290909 37.2562125,7.93551515 37.7125125,7.2310303 C38.1697875,6.52557576 38.5354125,5.75127273 38.899575,4.83684848 C39.00195,4.58375758 38.960025,4.29769697 38.7894,4.08339394 L38.7894,4.08339394 Z M35.5519125,7.49769697 C35.04735,8.02230303 34.4058,8.54109091 33.5346375,9.13357576 C33.2592,9.32121212 33.13635,9.6649697 33.232875,9.98351515 C33.3762,10.4572121 33.4464,11.0201212 33.4464,11.6402424 C33.44835,12.9740606 33.119775,14.5595152 32.643975,16.0775758 C32.168175,17.5966061 31.5466125,19.0526061 30.9908625,20.1541818 C29.4201375,23.273697 26.7486375,26.1178182 23.6218125,27.8070303 C20.109375,29.7066667 16.421925,30.4727273 13.075725,30.4727273 C10.01715,30.4741818 7.2462,29.8283636 5.1962625,28.8509091 C4.17105,28.3631515 3.327675,27.7939394 2.719275,27.2009697 C2.450175,26.9401212 2.2312875,26.6763636 2.0553,26.4135758 C2.1503625,26.4203636 2.2468875,26.425697 2.3482875,26.432 C2.8392,26.4620606 3.403725,26.4926061 4.0360125,26.4926061 C5.9694375,26.4945455 8.536125,26.1978182 11.6961,24.7558788 C12.012,24.6113939 12.1909125,24.2768485 12.1329,23.936 C12.0758625,23.5956364 11.7979875,23.3362424 11.4518625,23.302303 C10.7537625,23.2329697 10.02885,23.0448485 9.3409875,22.7534545 C8.3094375,22.3180606 7.366125,21.6494545 6.701175,20.8426667 C6.3682125,20.4397576 6.1039875,20.0029091 5.9236125,19.5408485 C5.8894875,19.4555152 5.862675,19.3687273 5.8348875,19.2824242 C6.028425,19.3585455 6.22245,19.4288485 6.41745,19.4841212 C7.042425,19.6635152 7.6152375,19.7318788 8.3279625,19.7372121 C8.3338125,19.7386667 8.2875,19.744 8.2875,19.744 L8.2875,19.8787879 L8.4123,19.8787879 C8.8339875,19.8787879 9.1801125,19.4744242 9.185475,19.0550303 C9.191325,18.6366061 8.8544625,18.2550303 8.432775,18.2467879 C7.1511375,18.2230303 5.864625,17.6295758 4.883775,16.528 C4.031625,15.5684848 3.4071375,14.1987879 3.25845,12.4339394 C3.4978125,12.4756364 3.7483875,12.4945455 4.0350375,12.5207273 C4.411875,12.553697 4.84965,12.5847273 5.3766375,12.6433939 C5.7705375,12.6870303 6.13275,12.4247273 6.213675,12.0392727 C6.2946,11.6538182 6.067425,11.2693333 5.689125,11.1529697 C5.2030875,11.0021818 4.8345375,10.7825455 4.5342375,10.5066667 C4.3095,10.3001212 4.1223,10.0591515 3.965325,9.78569697 C3.7298625,9.37648485 3.5646,8.89163636 3.46125,8.36509091 C3.356925,7.8390303 3.315,7.27369697 3.315,6.71369697 C3.315,6.27393939 3.34035,5.83757576 3.380325,5.42690909 C3.41835,5.03078788 3.4695375,4.69915152 3.5407125,4.40921212 C3.6499125,3.97381818 3.7951875,3.63151515 4.037475,3.25575758 C4.1637375,3.06036364 4.320225,2.85527273 4.5118125,2.63321212 C5.3688375,3.75466667 6.389175,4.78254545 7.4256,5.65381818 C8.7009,6.72339394 9.984975,7.55636364 11.051625,8.032 C12.5268,8.68557576 13.9956375,9.23490909 15.251925,9.64460606 C15.879825,9.85018182 16.4545875,10.0203636 16.9528125,10.1522424 C17.4520125,10.2841212 17.8712625,10.3767273 18.210075,10.4276364 C18.4640625,10.4654545 18.7185375,10.3757576 18.8911125,10.1871515 C19.064175,9.99806061 19.130475,9.73769697 19.06905,9.48993939 C18.976425,9.11321212 18.9310875,8.72339394 18.9310875,8.32678788 C18.92865,7.12824242 19.3474125,5.86278788 20.0187,4.81066667 C20.353125,4.28509091 20.7484875,3.81284848 21.174075,3.42739394 C21.5996625,3.04193939 22.0559625,2.74327273 22.505925,2.55515152 L22.505925,2.55515152 C23.6491125,2.07612121 24.7908375,1.83854545 25.8760125,1.83854545 C26.784225,1.83854545 27.6514875,2.00387879 28.4583,2.33551515 C29.2641375,2.66715152 30.009525,3.16509091 30.6720375,3.84630303 C30.6827625,3.85745455 30.6954375,3.86521212 30.7061625,3.87539394 C30.7266375,3.89430303 30.7471125,3.91224242 30.7695375,3.92872727 C30.7890375,3.94327273 30.8104875,3.95539394 30.8309625,3.968 C30.8524125,3.98109091 30.8738625,3.99321212 30.8962875,4.00436364 C30.9196875,4.0150303 30.9421125,4.02327273 30.9655125,4.032 C30.9889125,4.04024242 31.0123125,4.048 31.0366875,4.05430303 C31.0610625,4.06060606 31.0854375,4.064 31.109325,4.06787879 C31.1337,4.07127273 31.1571,4.07466667 31.18245,4.07563636 C31.20975,4.07709091 31.2365625,4.07612121 31.26435,4.07515152 C31.2794625,4.07418182 31.294575,4.07612121 31.310175,4.07418182 C32.1676875,3.97769697 32.9710875,3.81478788 33.8593125,3.50157576 C34.342425,3.33139394 34.8508875,3.11709091 35.4115125,2.84945455 C35.31255,3.1689697 35.2067625,3.45357576 35.087325,3.69357576 C34.9401,3.99127273 34.77825,4.224 34.5856875,4.41212121 C34.3926375,4.59975758 34.1679,4.75006061 33.856875,4.87224242 C33.472725,5.02206061 33.2772375,5.44436364 33.4113,5.83175758 C33.54585,6.21915152 33.962175,6.43151515 34.3565625,6.31418182 C35.3032875,6.032 36.1739625,5.79733333 36.8671875,5.62375758 C36.8398875,5.67563636 36.8135625,5.73042424 36.7872375,5.78084848 C36.4352625,6.44024242 36.05745,6.97260606 35.5519125,7.49769697 L35.5519125,7.49769697 Z" id="Shape" sketch:type="MSShapeGroup"></path>
            </g>
        </g>
    </g>
</svg>